<?xml version="1.0" encoding="UTF-8"?>
<!-- Do not edit this file with editors other than diagrams.net -->
<!DOCTYPE svg PUBLIC "-//W3C//DTD SVG 1.1//EN" "http://www.w3.org/Graphics/SVG/1.1/DTD/svg11.dtd">
<svg xmlns="http://www.w3.org/2000/svg" xmlns:xlink="http://www.w3.org/1999/xlink" version="1.1" width="609px" height="84px" viewBox="-0.5 -0.5 609 84" content="&lt;mxfile host=&quot;app.diagrams.net&quot; modified=&quot;2023-04-08T01:14:40.410Z&quot; agent=&quot;Mozilla/5.0 (Macintosh; Intel Mac OS X 10_15_7) AppleWebKit/605.1.15 (KHTML, like Gecko) Version/16.3 Safari/605.1.15&quot; etag=&quot;ayyfpe_8sE17YEQLDZD2&quot; version=&quot;21.1.5&quot; type=&quot;github&quot;&gt;&#10;  &lt;diagram name=&quot;Page-1&quot; id=&quot;t4Jn5vpzDotKNJ8F9sPx&quot;&gt;&#10;    &lt;mxGraphModel dx=&quot;954&quot; dy=&quot;650&quot; grid=&quot;1&quot; gridSize=&quot;10&quot; guides=&quot;1&quot; tooltips=&quot;1&quot; connect=&quot;1&quot; arrows=&quot;1&quot; fold=&quot;1&quot; page=&quot;1&quot; pageScale=&quot;1&quot; pageWidth=&quot;850&quot; pageHeight=&quot;1100&quot; math=&quot;0&quot; shadow=&quot;0&quot;&gt;&#10;      &lt;root&gt;&#10;        &lt;mxCell id=&quot;0&quot; /&gt;&#10;        &lt;mxCell id=&quot;1&quot; parent=&quot;0&quot; /&gt;&#10;        &lt;mxCell id=&quot;MkvONx4qWWmUhPcdUcCU-4&quot; style=&quot;edgeStyle=orthogonalEdgeStyle;rounded=0;orthogonalLoop=1;jettySize=auto;html=1;entryX=0;entryY=0.5;entryDx=0;entryDy=0;entryPerimeter=0;&quot; parent=&quot;1&quot; source=&quot;MkvONx4qWWmUhPcdUcCU-2&quot; target=&quot;MkvONx4qWWmUhPcdUcCU-15&quot; edge=&quot;1&quot;&gt;&#10;          &lt;mxGeometry relative=&quot;1&quot; as=&quot;geometry&quot;&gt;&#10;            &lt;mxPoint x=&quot;300&quot; y=&quot;148.5&quot; as=&quot;targetPoint&quot; /&gt;&#10;          &lt;/mxGeometry&gt;&#10;        &lt;/mxCell&gt;&#10;        &lt;mxCell id=&quot;MkvONx4qWWmUhPcdUcCU-2&quot; value=&quot;&quot; style=&quot;sketch=0;pointerEvents=1;shadow=0;dashed=0;html=1;strokeColor=none;labelPosition=center;verticalLabelPosition=bottom;verticalAlign=top;align=center;fillColor=#505050;shape=mxgraph.mscae.intune.user_group&quot; parent=&quot;1&quot; vertex=&quot;1&quot;&gt;&#10;          &lt;mxGeometry x=&quot;110&quot; y=&quot;131.75&quot; width=&quot;50&quot; height=&quot;37&quot; as=&quot;geometry&quot; /&gt;&#10;        &lt;/mxCell&gt;&#10;        &lt;mxCell id=&quot;MkvONx4qWWmUhPcdUcCU-18&quot; style=&quot;edgeStyle=orthogonalEdgeStyle;rounded=0;orthogonalLoop=1;jettySize=auto;html=1;&quot; parent=&quot;1&quot; source=&quot;MkvONx4qWWmUhPcdUcCU-3&quot; target=&quot;MkvONx4qWWmUhPcdUcCU-17&quot; edge=&quot;1&quot;&gt;&#10;          &lt;mxGeometry relative=&quot;1&quot; as=&quot;geometry&quot; /&gt;&#10;        &lt;/mxCell&gt;&#10;        &lt;mxCell id=&quot;MkvONx4qWWmUhPcdUcCU-3&quot; value=&quot;&quot; style=&quot;sketch=0;points=[[0,0,0],[0.25,0,0],[0.5,0,0],[0.75,0,0],[1,0,0],[0,1,0],[0.25,1,0],[0.5,1,0],[0.75,1,0],[1,1,0],[0,0.25,0],[0,0.5,0],[0,0.75,0],[1,0.25,0],[1,0.5,0],[1,0.75,0]];outlineConnect=0;fontColor=#232F3E;gradientColor=#F78E04;gradientDirection=north;fillColor=#D05C17;strokeColor=#ffffff;dashed=0;verticalLabelPosition=bottom;verticalAlign=top;align=center;html=1;fontSize=12;fontStyle=0;aspect=fixed;shape=mxgraph.aws4.resourceIcon;resIcon=mxgraph.aws4.eks;&quot; parent=&quot;1&quot; vertex=&quot;1&quot;&gt;&#10;          &lt;mxGeometry x=&quot;490&quot; y=&quot;121.5&quot; width=&quot;57.5&quot; height=&quot;57.5&quot; as=&quot;geometry&quot; /&gt;&#10;        &lt;/mxCell&gt;&#10;        &lt;mxCell id=&quot;MkvONx4qWWmUhPcdUcCU-8&quot; style=&quot;edgeStyle=orthogonalEdgeStyle;rounded=0;orthogonalLoop=1;jettySize=auto;html=1;entryX=0;entryY=0.5;entryDx=0;entryDy=0;entryPerimeter=0;exitX=1;exitY=0.5;exitDx=0;exitDy=0;exitPerimeter=0;&quot; parent=&quot;1&quot; source=&quot;MkvONx4qWWmUhPcdUcCU-15&quot; target=&quot;MkvONx4qWWmUhPcdUcCU-3&quot; edge=&quot;1&quot;&gt;&#10;          &lt;mxGeometry relative=&quot;1&quot; as=&quot;geometry&quot;&gt;&#10;            &lt;mxPoint x=&quot;390&quot; y=&quot;200&quot; as=&quot;sourcePoint&quot; /&gt;&#10;          &lt;/mxGeometry&gt;&#10;        &lt;/mxCell&gt;&#10;        &lt;mxCell id=&quot;MkvONx4qWWmUhPcdUcCU-16&quot; value=&quot;&quot; style=&quot;group&quot; parent=&quot;1&quot; vertex=&quot;1&quot; connectable=&quot;0&quot;&gt;&#10;          &lt;mxGeometry x=&quot;300&quot; y=&quot;102&quot; width=&quot;76&quot; height=&quot;78.5&quot; as=&quot;geometry&quot; /&gt;&#10;        &lt;/mxCell&gt;&#10;        &lt;mxCell id=&quot;MkvONx4qWWmUhPcdUcCU-15&quot; value=&quot;&quot; style=&quot;sketch=0;points=[[0,0,0],[0.25,0,0],[0.5,0,0],[0.75,0,0],[1,0,0],[0,1,0],[0.25,1,0],[0.5,1,0],[0.75,1,0],[1,1,0],[0,0.25,0],[0,0.5,0],[0,0.75,0],[1,0.25,0],[1,0.5,0],[1,0.75,0]];outlineConnect=0;fontColor=#232F3E;gradientColor=#60A337;gradientDirection=north;fillColor=#177162;strokeColor=#ffffff;dashed=0;verticalLabelPosition=bottom;verticalAlign=top;align=center;html=1;fontSize=12;fontStyle=0;aspect=fixed;shape=mxgraph.aws4.resourceIcon;resIcon=mxgraph.aws4.s3;&quot; parent=&quot;MkvONx4qWWmUhPcdUcCU-16&quot; vertex=&quot;1&quot;&gt;&#10;          &lt;mxGeometry y=&quot;18&quot; width=&quot;60.5&quot; height=&quot;60.5&quot; as=&quot;geometry&quot; /&gt;&#10;        &lt;/mxCell&gt;&#10;        &lt;mxCell id=&quot;MkvONx4qWWmUhPcdUcCU-13&quot; value=&quot;&quot; style=&quot;shape=image;html=1;verticalAlign=top;verticalLabelPosition=bottom;labelBackgroundColor=#ffffff;imageAspect=0;aspect=fixed;image=https://cdn1.iconfinder.com/data/icons/unicons-line-vol-5/24/react-128.png&quot; parent=&quot;MkvONx4qWWmUhPcdUcCU-16&quot; vertex=&quot;1&quot;&gt;&#10;          &lt;mxGeometry x=&quot;41&quot; width=&quot;35&quot; height=&quot;35&quot; as=&quot;geometry&quot; /&gt;&#10;        &lt;/mxCell&gt;&#10;        &lt;mxCell id=&quot;MkvONx4qWWmUhPcdUcCU-17&quot; value=&quot;&quot; style=&quot;sketch=0;outlineConnect=0;fontColor=#232F3E;gradientColor=none;fillColor=#3675AD;strokeColor=none;dashed=0;verticalLabelPosition=bottom;verticalAlign=top;align=center;html=1;fontSize=12;fontStyle=0;aspect=fixed;pointerEvents=1;shape=mxgraph.aws4.elasticache_for_redis;&quot; parent=&quot;1&quot; vertex=&quot;1&quot;&gt;&#10;          &lt;mxGeometry x=&quot;640&quot; y=&quot;116&quot; width=&quot;78&quot; height=&quot;69&quot; as=&quot;geometry&quot; /&gt;&#10;        &lt;/mxCell&gt;&#10;      &lt;/root&gt;&#10;    &lt;/mxGraphModel&gt;&#10;  &lt;/diagram&gt;&#10;&lt;/mxfile&gt;&#10;" resource="https://app.diagrams.net/#Hpavanmaradia%2FStoryPointPlanner%2Fmain%2Fdocs%2Farchitecture.drawio.svg"><defs><linearGradient x1="0%" y1="100%" x2="0%" y2="0%" id="mx-gradient-f78e04-1-d05c17-1-s-0"><stop offset="0%" style="stop-color: rgb(208, 92, 23); stop-opacity: 1;"/><stop offset="100%" style="stop-color: rgb(247, 142, 4); stop-opacity: 1;"/></linearGradient><linearGradient x1="0%" y1="100%" x2="0%" y2="0%" id="mx-gradient-60a337-1-177162-1-s-0"><stop offset="0%" style="stop-color: rgb(23, 113, 98); stop-opacity: 1;"/><stop offset="100%" style="stop-color: rgb(96, 163, 55); stop-opacity: 1;"/></linearGradient></defs><g><path d="M 50 48.25 L 183.63 48.25" fill="none" stroke="rgb(0, 0, 0)" stroke-miterlimit="10" pointer-events="stroke"/><path d="M 188.88 48.25 L 181.88 51.75 L 183.63 48.25 L 181.88 44.75 Z" fill="rgb(0, 0, 0)" stroke="rgb(0, 0, 0)" stroke-miterlimit="10" pointer-events="all"/><rect x="0" y="29.75" width="50" height="37" fill="none" stroke="none" pointer-events="all"/><path d="M 0 61.89 C 0.23 58.77 0.59 55.66 1.06 52.57 C 1.28 51.63 1.56 50.7 1.9 49.79 C 2.24 48.86 2.85 48.04 3.67 47.46 C 4.68 46.78 5.82 46.28 7.02 46 C 7.5 45.81 8.05 45.81 8.53 46 C 12.03 49.24 17.49 49.24 20.98 46 C 21.41 45.83 21.89 45.83 22.32 46 C 23.71 46.46 25.04 47.06 26.3 47.8 C 24.75 47.96 23.25 48.41 21.87 49.11 C 19.74 50.22 18.15 52.12 17.45 54.39 L 16.37 61.9 Z M 14.41 44.38 C 12.58 44.43 10.82 43.66 9.54 42.27 C 8.27 40.88 7.61 38.99 7.71 37.05 C 7.66 35.15 8.34 33.31 9.61 31.96 C 10.88 30.61 12.61 29.87 14.41 29.91 C 16.27 29.75 18.11 30.44 19.46 31.8 C 20.82 33.17 21.55 35.08 21.49 37.05 C 21.61 39.06 20.89 41.02 19.53 42.43 C 18.17 43.84 16.3 44.55 14.41 44.38 Z M 18.46 66.75 C 18.68 63.99 18.99 61.23 19.4 58.49 C 19.58 57.25 19.86 56.02 20.23 54.82 C 20.46 53.55 21.18 52.41 22.25 51.65 C 23.46 50.9 24.76 50.27 26.1 49.79 C 26.71 49.62 27.37 49.73 27.88 50.1 C 28.63 50.84 29.51 51.45 30.47 51.9 C 32.87 52.92 35.59 52.92 37.99 51.9 C 38.95 51.43 39.84 50.85 40.65 50.16 C 41.28 49.67 42.15 49.6 42.86 49.98 C 44 50.36 45.09 50.9 46.08 51.59 C 47 52.2 47.69 53.1 48.04 54.14 C 48.66 56.08 49.08 58.08 49.3 60.1 C 49.6 62.31 49.83 64.53 50 66.75 Z M 34.64 48.24 C 30.21 48.33 26.54 44.44 26.42 39.54 C 26.45 37.16 27.33 34.89 28.87 33.24 C 30.42 31.58 32.49 30.67 34.64 30.72 C 38.85 31.04 42.12 34.88 42.16 39.54 C 42.06 44.15 38.8 47.92 34.64 48.24 Z" fill="#505050" stroke="none" pointer-events="all"/><path d="M 437.5 48.3 L 484.7 48.3 L 525.51 48.47" fill="none" stroke="rgb(0, 0, 0)" stroke-miterlimit="10" pointer-events="stroke"/><path d="M 530.76 48.5 L 523.74 51.97 L 525.51 48.47 L 523.77 44.97 Z" fill="rgb(0, 0, 0)" stroke="rgb(0, 0, 0)" stroke-miterlimit="10" pointer-events="all"/><path d="M 380 19.5 L 437.5 19.5 L 437.5 77 L 380 77 Z" fill="url(#mx-gradient-f78e04-1-d05c17-1-s-0)" stroke="none" pointer-events="all"/><path d="M 413.86 41.57 L 408.36 47.96 L 414.35 54.95 L 412.11 54.95 L 406.73 48.67 L 406.73 55.12 L 405.12 55.12 L 405.12 41.41 L 406.73 41.41 L 406.73 47.06 L 411.72 41.57 Z M 427.7 54.5 L 421.25 50.63 L 421.25 41.41 C 421.25 41.13 421.1 40.86 420.85 40.72 L 411.57 35.31 L 411.57 27.51 L 427.7 37.04 Z M 428.92 35.88 L 411.18 25.4 C 410.93 25.25 410.62 25.25 410.37 25.39 C 410.12 25.54 409.96 25.8 409.96 26.09 L 409.96 35.77 C 409.96 36.06 410.11 36.32 410.36 36.47 L 419.64 41.88 L 419.64 51.09 C 419.64 51.37 419.79 51.64 420.03 51.78 L 428.09 56.62 C 428.22 56.7 428.36 56.74 428.51 56.74 C 428.64 56.74 428.78 56.7 428.9 56.63 C 429.16 56.49 429.31 56.22 429.31 55.93 L 429.31 36.58 C 429.31 36.29 429.16 36.03 428.92 35.88 Z M 408.71 69.53 L 389.8 59.48 L 389.8 37.04 L 405.93 27.51 L 405.93 35.33 L 397.43 40.73 C 397.2 40.88 397.06 41.14 397.06 41.41 L 397.06 55.12 C 397.06 55.42 397.23 55.7 397.49 55.84 L 408.34 61.48 C 408.57 61.6 408.85 61.6 409.08 61.48 L 419.61 56.05 L 426.08 59.93 Z M 428.11 59.27 L 420.05 54.43 C 419.81 54.29 419.51 54.28 419.27 54.41 L 408.71 59.86 L 398.67 54.63 L 398.67 41.86 L 407.17 36.45 C 407.4 36.3 407.54 36.05 407.54 35.77 L 407.54 26.09 C 407.54 25.8 407.39 25.54 407.13 25.39 C 406.88 25.25 406.57 25.25 406.32 25.4 L 388.58 35.88 C 388.34 36.03 388.19 36.29 388.19 36.58 L 388.19 59.96 C 388.19 60.26 388.35 60.53 388.62 60.67 L 408.33 71.16 C 408.45 71.22 408.58 71.25 408.71 71.25 C 408.85 71.25 408.98 71.22 409.1 71.15 L 428.09 60.67 C 428.34 60.53 428.5 60.26 428.51 59.98 C 428.51 59.69 428.36 59.42 428.11 59.27 Z" fill="#ffffff" stroke="none" pointer-events="all"/><path d="M 250.5 48.25 L 373.63 48.25" fill="none" stroke="rgb(0, 0, 0)" stroke-miterlimit="10" pointer-events="stroke"/><path d="M 378.88 48.25 L 371.88 51.75 L 373.63 48.25 L 371.88 44.75 Z" fill="rgb(0, 0, 0)" stroke="rgb(0, 0, 0)" stroke-miterlimit="10" pointer-events="all"/><path d="M 190 18 L 250.5 18 L 250.5 78.5 L 190 78.5 Z" fill="url(#mx-gradient-60a337-1-177162-1-s-0)" stroke="none" pointer-events="none"/><path d="M 238.31 50.75 L 238.64 48.41 C 241.7 50.25 241.74 51 241.74 51.02 C 241.73 51.03 241.21 51.46 238.31 50.75 Z M 236.63 50.28 C 231.34 48.68 223.97 45.3 220.99 43.89 C 220.99 43.88 221 43.87 221 43.86 C 221 42.71 220.06 41.78 218.92 41.78 C 217.77 41.78 216.84 42.71 216.84 43.86 C 216.84 45 217.77 45.94 218.92 45.94 C 219.42 45.94 219.88 45.75 220.24 45.45 C 223.75 47.11 231.05 50.44 236.38 52.01 L 234.28 66.88 C 234.27 66.93 234.27 66.97 234.27 67.01 C 234.27 68.32 228.47 70.72 219 70.72 C 209.43 70.72 203.57 68.32 203.57 67.01 C 203.57 66.97 203.57 66.93 203.56 66.89 L 199.16 34.73 C 202.97 37.35 211.16 38.74 219 38.74 C 226.83 38.74 235.01 37.36 238.83 34.74 Z M 198.69 31.38 C 198.76 30.24 205.29 25.78 219 25.78 C 232.71 25.78 239.25 30.24 239.31 31.38 L 239.31 31.77 C 238.56 34.32 230.09 37.01 219 37.01 C 207.9 37.01 199.42 34.31 198.69 31.75 Z M 241.04 31.4 C 241.04 28.4 232.46 24.05 219 24.05 C 205.55 24.05 196.96 28.4 196.96 31.4 L 197.05 32.05 L 201.84 67.07 C 201.96 70.99 212.4 72.45 219 72.45 C 227.19 72.45 235.88 70.57 235.99 67.08 L 238.07 52.47 C 239.22 52.75 240.17 52.89 240.93 52.89 C 241.95 52.89 242.64 52.64 243.06 52.14 C 243.4 51.73 243.54 51.23 243.44 50.7 C 243.21 49.51 241.79 48.22 238.9 46.57 L 240.95 32.08 Z" fill="#ffffff" stroke="none" pointer-events="none"/><image x="230.5" y="-0.5" width="35" height="35" xlink:href="https://cdn1.iconfinder.com/data/icons/unicons-line-vol-5/24/react-128.png" preserveAspectRatio="none" pointer-events="none"/><path d="M 601.91 26.61 C 601.91 27.99 603.04 29.12 604.44 29.12 C 605.37 29.12 606.13 29.87 606.13 30.81 L 606.13 57.69 C 606.13 58.62 605.37 59.38 604.44 59.38 L 591.31 59.38 L 591.31 56 L 597.5 56 L 597.5 52.81 L 591.31 52.81 L 591.31 49.44 L 599.19 49.44 C 600.12 49.44 600.88 50.19 600.88 51.13 L 600.88 56 L 602.75 56 L 602.75 32.25 C 600.31 31.52 598.53 29.27 598.53 26.61 C 598.53 23.94 600.31 21.69 602.75 20.96 L 602.75 17.37 L 535.25 17.37 L 535.25 20.96 C 537.69 21.69 539.47 23.94 539.47 26.61 C 539.47 29.27 537.69 31.52 535.25 32.25 L 535.25 56 L 537.13 56 L 537.13 51.13 C 537.13 50.19 537.88 49.44 538.81 49.44 L 546.69 49.44 L 546.69 52.81 L 540.5 52.81 L 540.5 56 L 546.69 56 L 546.69 59.38 L 533.56 59.38 C 532.63 59.38 531.87 58.62 531.87 57.69 L 531.87 30.81 C 531.87 29.87 532.63 29.12 533.56 29.12 C 534.96 29.12 536.09 27.99 536.09 26.61 C 536.09 25.22 534.96 24.09 533.56 24.09 C 532.63 24.09 531.87 23.34 531.87 22.41 L 531.87 15.69 C 531.87 14.76 532.63 14 533.56 14 L 604.44 14 C 605.37 14 606.13 14.76 606.13 15.69 L 606.13 22.41 C 606.13 23.34 605.37 24.09 604.44 24.09 C 603.04 24.09 601.91 25.22 601.91 26.61 Z M 569.32 63.02 L 565.82 63.02 L 565.82 56.38 L 569.41 56.38 C 571.59 56.38 572.69 57.49 572.69 59.7 C 572.69 61.92 571.57 63.02 569.32 63.02 Z M 575.27 62.97 C 575.94 62.02 576.27 60.9 576.27 59.59 C 576.27 57.78 575.68 56.34 574.49 55.27 C 573.31 54.2 571.74 53.67 569.77 53.67 L 562.29 53.67 L 562.29 73.68 L 565.82 73.68 L 565.82 65.74 L 569.34 65.74 L 574.02 73.68 L 577.54 73.68 L 572.37 65.13 C 573.64 64.63 574.61 63.91 575.27 62.97 Z M 545.75 42.88 L 548 42.88 L 548 46.25 L 544.06 46.25 C 543.13 46.25 542.38 45.5 542.38 44.56 L 542.38 22.25 C 542.38 21.32 543.13 20.56 544.06 20.56 L 551.94 20.56 C 552.87 20.56 553.63 21.32 553.63 22.25 L 553.63 32.75 L 550.25 32.75 L 550.25 23.94 L 545.75 23.94 Z M 592.25 42.88 L 592.25 23.94 L 587.75 23.94 L 587.75 32.75 L 584.38 32.75 L 584.38 22.25 C 584.38 21.32 585.13 20.56 586.06 20.56 L 593.94 20.56 C 594.87 20.56 595.63 21.32 595.63 22.25 L 595.63 44.56 C 595.63 45.5 594.87 46.25 593.94 46.25 L 591.31 46.25 L 591.31 42.88 Z M 579.13 31.44 L 579.13 23.94 L 573.31 23.94 L 573.31 30.12 L 569.94 30.12 L 569.94 22.25 C 569.94 21.32 570.69 20.56 571.63 20.56 L 580.81 20.56 C 581.75 20.56 582.5 21.32 582.5 22.25 L 582.5 31.44 Z M 564.69 30.12 L 564.69 23.94 L 558.88 23.94 L 558.88 31.44 L 555.5 31.44 L 555.5 22.25 C 555.5 21.32 556.25 20.56 557.19 20.56 L 566.37 20.56 C 567.31 20.56 568.06 21.32 568.06 22.25 L 568.06 30.12 Z M 582.04 58.47 C 583.55 58 584.74 57.48 585.69 56.93 L 585.69 64.14 C 585.69 64.73 584.45 65.99 581.02 67.07 L 582.04 70.29 C 583.55 69.81 584.74 69.29 585.69 68.74 L 585.69 75.18 C 585.69 76.75 579.35 79.63 569 79.63 C 558.65 79.63 552.31 76.75 552.31 75.18 L 552.31 68.75 C 553.27 69.29 554.48 69.82 556.01 70.3 L 557.02 67.08 C 553.57 66 552.31 64.73 552.31 64.14 L 552.31 56.93 C 553.27 57.48 554.48 58.01 556.01 58.49 L 557.02 55.27 C 553.57 54.19 552.31 52.92 552.31 52.33 L 552.31 45.09 C 556.12 47.3 562.61 48.35 568.82 48.35 C 575.33 48.35 581.88 47.2 585.69 44.99 L 585.69 52.33 C 585.69 52.92 584.45 54.18 581.02 55.25 Z M 568.82 35.96 C 579.25 35.96 585.64 38.87 585.64 40.47 C 585.64 42.05 579.25 44.98 568.82 44.98 C 558.15 44.98 552.34 42 552.34 40.47 C 552.34 38.94 558.15 35.96 568.82 35.96 Z M 589.04 40.47 C 589.04 35.29 578.85 32.58 568.82 32.58 C 559.26 32.58 548.95 35.05 548.95 40.47 L 548.95 40.64 L 548.94 75.18 C 548.94 80.31 559.03 83 569 83 C 578.97 83 589.06 80.31 589.06 75.18 L 589.04 40.64 Z" fill="#3675ad" stroke="none" pointer-events="none"/></g></svg>